HIERARCHY
ROOT hip
{
  OFFSET 0 0 0
  CHANNELS 6 Xposition Yposition Zposition Zrotation Yrotation Xrotation
  JOINT abdomen
  {
    OFFSET 0 20.6881 -0.73152
    CHANNELS 3 Zrotation Xrotation Yrotation
    JOINT chest
    {
      OFFSET 0 11.7043 -0.48768
      CHANNELS 3 Zrotation Xrotation Yrotation
      JOINT neck
      {
        OFFSET 0 22.1894 -2.19456
        CHANNELS 3 Zrotation Xrotation Yrotation
        JOINT head
        {
          OFFSET -0.24384 7.07133 1.2192
          CHANNELS 3 Zrotation Xrotation Yrotation
          JOINT leftEye
          {
            OFFSET 4.14528 8.04674 8.04672
            CHANNELS 3 Zrotation Xrotation Yrotation
            End Site
            {
              OFFSET 1 0 0
            }
          }
          JOINT rightEye
          {
            OFFSET -3.6576 8.04674 8.04672
            CHANNELS 3 Zrotation Xrotation Yrotation
            End Site
            {
              OFFSET 1 0 0
            }
          }
        }
      }
      JOINT rCollar
      {
        OFFSET -2.68224 19.2634 -4.8768
        CHANNELS 3 Zrotation Xrotation Yrotation
        JOINT rShldr
        {
          OFFSET -8.77824 -1.95073 1.46304
          CHANNELS 3 Zrotation Xrotation Yrotation
          JOINT rForeArm
          {
            OFFSET -28.1742 -1.7115 0.48768
            CHANNELS 3 Zrotation Xrotation Yrotation
            JOINT rHand
            {
              OFFSET -22.5879 0.773209 7.07136
              CHANNELS 3 Zrotation Xrotation Yrotation
              JOINT rThumb1
              {
                OFFSET -1.2192 -0.487915 3.41376
                CHANNELS 3 Zrotation Xrotation Yrotation
                JOINT rThumb2
                {
                  OFFSET -3.37035 -0.52449 3.41376
                  CHANNELS 3 Zrotation Xrotation Yrotation
                  End Site
                  {
                    OFFSET -1.78271 -1.18214 1.43049
                  }
                }
              }
              JOINT rIndex1
              {
                OFFSET -7.75947 0.938293 5.60832
                CHANNELS 3 Zrotation Xrotation Yrotation
                JOINT rIndex2
                {
                  OFFSET -2.54057 -0.884171 1.56538
                  CHANNELS 3 Zrotation Xrotation Yrotation
                  End Site
                  {
                    OFFSET -1.62519 -0.234802 1.16502
                  }
                }
              }
              JOINT rMid1
              {
                OFFSET -8.24714 1.18213 3.41376
                CHANNELS 3 Zrotation Xrotation Yrotation
                JOINT rMid2
                {
                  OFFSET -3.10165 -0.590103 1.0647
                  CHANNELS 3 Zrotation Xrotation Yrotation
                  End Site
                  {
                    OFFSET -2.48547 -0.328903 0.83742
                  }
                }
              }
              JOINT rRing1
              {
                OFFSET -8.82822 0.546677 1.51678
                CHANNELS 3 Zrotation Xrotation Yrotation
                JOINT rRing2
                {
                  OFFSET -2.60934 -0.819778 -0.0198488
                  CHANNELS 3 Zrotation Xrotation Yrotation
                  End Site
                  {
                    OFFSET -2.33842 -0.294052 0.168128
                  }
                }
              }
              JOINT rPinky1
              {
                OFFSET -8.27202 -0.0477905 -0.4584
                CHANNELS 3 Zrotation Xrotation Yrotation
                JOINT rPinky2
                {
                  OFFSET -1.82734 -0.647385 -0.700984
                  CHANNELS 3 Zrotation Xrotation Yrotation
                  End Site
                  {
                    OFFSET -1.69225 -0.51767 -0.607171
                  }
                }
              }
            }
          }
        }
      }
      JOINT lCollar
      {
        OFFSET 2.68224 19.2634 -4.8768
        CHANNELS 3 Zrotation Xrotation Yrotation
        JOINT lShldr
        {
          OFFSET 8.77824 -1.95073 1.46304
          CHANNELS 3 Zrotation Xrotation Yrotation
          JOINT lForeArm
          {
            OFFSET 28.1742 -1.7115 0.48768
            CHANNELS 3 Zrotation Xrotation Yrotation
            JOINT lHand
            {
              OFFSET 22.5879 0.773209 7.07136
              CHANNELS 3 Zrotation Xrotation Yrotation
              JOINT lThumb1
              {
                OFFSET 1.2192 -0.487915 3.41376
                CHANNELS 3 Zrotation Xrotation Yrotation
                JOINT lThumb2
                {
                  OFFSET 3.37035 -0.52449 3.41376
                  CHANNELS 3 Zrotation Xrotation Yrotation
                  End Site
                  {
                    OFFSET 1.78271 -1.18214 1.43049
                  }
                }
              }
              JOINT lIndex1
              {
                OFFSET 7.75947 0.938293 5.60832
                CHANNELS 3 Zrotation Xrotation Yrotation
                JOINT lIndex2
                {
                  OFFSET 2.54057 -0.884171 1.56538
                  CHANNELS 3 Zrotation Xrotation Yrotation
                  End Site
                  {
                    OFFSET 1.62519 -0.234802 1.16502
                  }
                }
              }
              JOINT lMid1
              {
                OFFSET 8.24714 1.18213 3.41376
                CHANNELS 3 Zrotation Xrotation Yrotation
                JOINT lMid2
                {
                  OFFSET 3.10165 -0.590103 1.0647
                  CHANNELS 3 Zrotation Xrotation Yrotation
                  End Site
                  {
                    OFFSET 2.48547 -0.328903 0.83742
                  }
                }
              }
              JOINT lRing1
              {
                OFFSET 8.82822 0.546677 1.51678
                CHANNELS 3 Zrotation Xrotation Yrotation
                JOINT lRing2
                {
                  OFFSET 2.60934 -0.819778 -0.0198488
                  CHANNELS 3 Zrotation Xrotation Yrotation
                  End Site
                  {
                    OFFSET 2.33842 -0.294052 0.168128
                  }
                }
              }
              JOINT lPinky1
              {
                OFFSET 8.27202 -0.0477905 -0.4584
                CHANNELS 3 Zrotation Xrotation Yrotation
                JOINT lPinky2
                {
                  OFFSET 1.82734 -0.647385 -0.700984
                  CHANNELS 3 Zrotation Xrotation Yrotation
                  End Site
                  {
                    OFFSET 1.69225 -0.51767 -0.607171
                  }
                }
              }
            }
          }
        }
      }
    }
  }
  JOINT rButtock
  {
    OFFSET -8.77824 4.35084 1.2192
    CHANNELS 3 Zrotation Xrotation Yrotation
    JOINT rThigh
    {
      OFFSET 0 -1.70687 -2.19456
      CHANNELS 3 Zrotation Xrotation Yrotation
      JOINT rShin
      {
        OFFSET 0 -36.8199 0.73152
        CHANNELS 3 Zrotation Xrotation Yrotation
        JOINT rFoot
        {
          OFFSET 0.73152 -45.1104 -5.12064
          CHANNELS 3 Zrotation Xrotation Yrotation
          End Site
          {
            OFFSET -1.1221 -3.69964 12.103
          }
        }
      }
    }
  }
  JOINT lButtock
  {
    OFFSET 8.77824 4.35084 1.2192
    CHANNELS 3 Zrotation Xrotation Yrotation
    JOINT lThigh
    {
      OFFSET 0 -1.70687 -2.19456
      CHANNELS 3 Zrotation Xrotation Yrotation
      JOINT lShin
      {
        OFFSET 0 -36.8199 0.73152
        CHANNELS 3 Zrotation Xrotation Yrotation
        JOINT lFoot
        {
          OFFSET -0.73152 -45.1104 -5.12064
          CHANNELS 3 Zrotation Xrotation Yrotation
          End Site
          {
            OFFSET 1.1221 -3.69964 12.103
          }
        }
      }
    }
  }
}
MOTION
Frames:	4
Frame Time:	0.03333
2.4276722110807896 67.75479888916016 37.0798856317997 -32.78022587299347 -7.795878052711487 13.388375043869019 -3.493345230817795 22.27130278944969 9.973373115062714 2.7113565802574158 -2.1910053491592407 1.7523865588009357 -2.536148317158222 16.980605274438858 -1.1372961848974228 11.323259174823761 -24.478155970573425 -6.564314961433411 -7.160269618034363 -4.715069308876991 -1.1365538835525513 -1.5748090669512749 -1.7630806937813759 -4.700174331665039 -5.251051113009453 7.084977999329567 -2.041163742542267 36.031760573387146 20.45966237783432 15.229499638080597 -9.222341850399971 -29.193170964717865 59.27241504192352 4.578101634979248 -14.1732457280159 -3.007614277303219 11.54848426580429 0.14189288020133972 0.23368947207927704 -0.11284656822681427 -7.600065395236015 1.273176223039627 -6.418866813182831 7.485911250114441 6.648299619555473 5.156784877181053 5.982356742024422 -2.541077882051468 -2.9174578562378883 1.7781241983175278 0.45018061995506287 4.118021987378597 0.5085159838199615 3.8757413998246193 -4.105115868151188 0.029668249189853668 4.82701800763607 6.545886844396591 -3.8183484971523285 2.129032239317894 1.5104947239160538 -2.5199273228645325 -1.468459814786911 -2.5944773107767105 5.044748671352863 -0.443497896194458 -1.5488622151315212 4.9662139266729355 8.855481371283531 -60.023900270462036 29.182536005973816 -24.02961552143097 31.907655000686646 -31.89178705215454 -72.10518658161163 6.429450809955597 -26.91728174686432 1.5471665561199188 -2.767741307616234 0.6460177525877953 -0.6125895492732525 -6.028866916894913 6.50363065302372 -2.1651723235845566 -4.554775804281235 -6.3092684000730515 -2.9142727330327034 -9.794841930270195 0.0919223204255104 -6.310468018054962 2.678808644413948 2.0498396828770638 -0.1584240049123764 3.654577173292637 4.300339110195637 4.7126466035842896 5.415372289717197 6.497282534837723 -2.2977364808321 -3.9083510264754295 -0.2810535952448845 6.933324560523033 1.9353633373975754 3.6890794336795807 -2.174376994371414 4.178677462041378 3.747974708676338 0.4834567755460739 -5.2496543526649475 0.506119430065155 3.6887649446725845 -26.936164498329163 -40.07932394742966 -23.050054013729095 -16.602246165275574 63.61616134643555 15.782576501369476 10.383022874593735 -10.163402259349823 -11.197742521762848 -9.839801117777824 3.934558555483818 -5.758497565984726 33.810279965400696 -31.35532110929489 24.3111053109169 10.735183507204056 66.59801602363586 -29.225049018859863 3.586646541953087 -12.850565314292908 17.91415348649025
2.480500712990761 67.50479125976562 37.33063209056854 -33.35049033164978 -7.2883933782577515 12.493005394935608 -3.4028367698192596 22.244738191366196 9.938332736492157 2.6366624236106873 -2.268247604370117 1.8182562477886677 -2.428390569984913 17.127193361520767 -0.9617402404546738 11.164896860718727 -24.631047248840332 -6.530562043190002 -7.15720921754837 -4.38613124191761 -1.1256158351898193 -1.721096746623516 -1.7046541348099709 -4.6821606159210205 -5.089415833353996 7.049645259976387 -2.198244631290436 36.56002700328827 20.55929034948349 14.780261814594269 -9.419347420334816 -29.327935874462128 59.822176694869995 4.391924142837524 -14.063771367073059 -3.381396196782589 11.766708791255951 0.032245516777038574 0.42757831513881683 -0.2608159929513931 -7.546048387885094 1.4647771418094635 -6.216435134410858 7.3527610301971436 6.745695993304253 5.042576417326927 5.921813920140266 -2.677403837442398 -2.8901422396302223 1.6526960581541061 0.3316269814968109 4.162927530705929 0.6599722802639008 3.954700268805027 -4.080069400370121 -0.13122137635946274 4.806027039885521 6.69623538851738 -3.882678598165512 2.052296921610832 1.3562167435884476 -2.369624376296997 -1.5449456870555878 -2.5781024247407913 4.979603178799152 -0.44998615980148315 -1.6798639856278896 4.880329594016075 8.71319554746151 -60.12789487838745 29.336891770362854 -24.09726083278656 31.925883293151855 -31.952624917030334 -72.27732539176941 6.586767733097076 -27.01209783554077 1.9532959163188934 -2.9392846673727036 0.5658089742064476 -0.6410611979663372 -5.926631838083267 6.477366462349892 -2.2271259874105453 -4.557683318853378 -6.306731030344963 -3.113083429634571 -9.75601963698864 -0.05637165158987045 -6.499837338924408 2.8328854590654373 1.902444250881672 -0.3693046420812607 3.488805927336216 4.281703121960163 4.692181348800659 5.150353945791721 6.482436507940292 -2.3910773545503616 -4.018729291856289 -0.3536703810095787 6.887625083327293 1.9809447973966599 3.738812953233719 -2.1884210407733917 4.301109574735165 3.721308186650276 0.6354682892560959 -5.218438804149628 0.47354668378829956 3.7183818966150284 -27.15995728969574 -40.11200934648514 -23.18548411130905 -16.357521414756775 63.65546107292175 15.965559482574463 10.147337168455124 -9.887660443782806 -10.926088392734528 -9.903224632143974 3.8607709854841232 -5.625889152288437 34.471192359924316 -31.467898786067963 24.912456572055817 10.723118931055069 66.88007712364197 -29.646402597427368 3.6355700343847275 -12.838420271873474 17.979631572961807
2.5335823260247707 68.26435852050781 37.58358412981033 -36.447755098342896 -8.73461365699768 9.587100818753242 -3.1791432201862335 22.705349922180176 10.563202947378159 4.03310626745224 -2.0526811480522156 1.8630786426365376 -2.220648117363453 16.71860709786415 -1.334921345114708 11.724404990673065 -25.277663469314575 -7.5628262758255005 -7.045870721340179 -4.948367848992348 -1.3042134046554565 -1.609313003718853 -1.7314494028687477 -4.984263181686401 -4.895781800150871 7.25856252014637 -1.8648138642311096 35.55030137300491 20.740875899791718 14.367555677890778 -10.33209778368473 -29.014653861522675 57.522311210632324 4.425931870937347 -14.773499965667725 -1.8177863582968712 11.442461907863617 0.09880989789962769 -0.821496918797493 -0.10674521327018738 -7.274987027049065 1.1308260262012482 -6.391840875148773 8.66670548915863 6.415312215685844 5.294768437743187 6.6710514575243 -2.671009451150894 -3.07622317224741 1.248709699138999 1.1692486703395844 4.274856112897396 0.7352752983570099 4.52203843742609 -4.335474707186222 0.5292833223938942 5.4896631091833115 6.628697365522385 -3.278602212667465 3.1640537828207016 1.9572944194078445 -2.8573304414749146 -1.7543403804302216 -1.8146169930696487 4.420673735439777 -0.9867203235626221 -1.483298297971487 5.943712815642357 8.726477846503258 -59.330758452415466 28.586270213127136 -24.183810353279114 31.117379665374756 -32.433544993400574 -72.53166854381561 6.317940652370453 -27.583563923835754 0.9422855079174042 -2.8397586196660995 1.1375164613127708 -0.8915902487933636 -6.547724157571793 6.0764479637146 -1.8348046392202377 -4.99435231089592 -6.496470496058464 -3.542295880615711 -10.25187961757183 -0.24831589311361313 -6.732481420040131 2.0562196522951126 1.447383351624012 -0.09493611752986908 3.664013184607029 4.202084429562092 4.975049793720245 6.1257603764534 6.020495742559433 -2.18862421810627 -4.255031906068325 0.044963546097278595 7.068030461668968 1.9579730182886124 3.7570519745349884 -2.7428658306598663 3.9097055420279503 4.090524986386299 -0.34992165863513947 -5.100882947444916 0.08513063192367554 2.735486403107643 -25.774864554405212 -40.73257327079773 -22.31788605451584 -17.578033804893494 64.53648090362549 15.901819467544556 9.652920216321945 -10.35648912191391 -12.180385887622833 -9.39720444381237 3.9889591187238693 -6.306891292333603 31.89202845096588 -31.62873476743698 24.31258052587509 11.185853630304337 67.06299304962158 -29.345252215862274 3.8390155881643295 -14.417350888252258 19.702564626932144
2.587197184562683 68.1618423461914 37.804360285401344 -36.68167054653168 -8.739200234413147 10.356304720044136 -3.25038805603981 22.63434648513794 10.476544797420502 3.8158687949180603 -2.2215530276298523 2.0468716509640217 -2.4898989871144295 16.98579803109169 -1.1549558490514755 11.183500662446022 -25.307355523109436 -7.075254321098328 -6.781319081783295 -4.743967428803444 -1.3155269622802734 -1.764419786632061 -1.4161396399140358 -4.8753440380096436 -4.920366927981377 7.178022488951683 -1.9170847535133362 35.422928631305695 20.75658828020096 14.800182580947876 -10.271827206015587 -29.013972580432892 58.26717138290405 4.443934857845306 -14.660584330558777 -2.427431009709835 11.686156690120697 0.1732197403907776 -0.37605173885822296 -0.2953755855560303 -7.26873479783535 1.2731118500232697 -6.270004212856293 7.928776144981384 6.527578756213188 5.32240591943264 6.249740794301033 -2.906367927789688 -2.8661740198731422 0.9949217643588781 1.1683957278728485 4.285002909600735 1.0014228522777557 4.486517943441868 -4.097627140581608 0.176202692091465 5.482254847884178 6.817374676465988 -3.691040128469467 2.862865850329399 1.8552926927804947 -2.7451711893081665 -1.9219247996807098 -1.9661872833967209 4.47554100304842 -0.7293087244033813 -1.8768883310258389 5.573884472250938 9.01083491742611 -59.162498116493225 28.356125950813293 -24.38264787197113 31.36920690536499 -32.190783619880676 -72.6803970336914 6.674009263515472 -27.34600067138672 1.4695648849010468 -2.992907389998436 0.7422232255339622 -0.9140001051127911 -6.4510466158390045 6.111264377832413 -2.0634736865758896 -5.001363605260849 -6.389246508479118 -3.66192240267992 -9.934080764651299 -0.29802795499563217 -6.928529441356659 2.184600904583931 1.4370595291256905 -0.38691602647304535 3.2718581333756447 4.403765089809895 4.7682783007621765 5.704444348812103 6.082918792963028 -2.4155283719301224 -4.147421680390835 0.047699399292469025 6.9759636372327805 2.0746665447950363 3.849346786737442 -2.6544897258281708 4.160046838223934 3.943539932370186 0.06430260837078094 -5.0272563099861145 -0.19971996545791626 2.917613759636879 -25.5130273103714 -40.62987685203552 -22.187085449695587 -17.218682169914246 64.325852394104 16.148829460144043 9.635357111692429 -10.289498269557953 -12.150967419147491 -9.677522107958794 4.051148816943169 -5.9233783185482025 32.44436502456665 -31.91236764192581 24.420949816703796 11.277990192174911 66.90094470977783 -30.00741720199585 3.7689723819494247 -14.406235814094543 19.219155460596085
